<svg width="22" height="19" viewBox="0 0 22 19" fill="none" xmlns="http://www.w3.org/2000/svg">
<path d="M19.5006 4.86439V5.42611C19.4982 6.97118 19.2183 8.5027 18.6749 9.94469C18.1252 11.4254 17.3304 12.7986 16.3254 14.0045C15.2385 15.2833 13.8901 16.303 12.3753 16.9916C10.7043 17.7692 8.88612 18.1615 7.04992 18.1406C4.67426 18.158 2.34545 17.4658 0.349976 16.1492C0.682809 16.1833 1.03283 16.2003 1.40004 16.2003C3.37409 16.2209 5.2962 15.5546 6.85013 14.3111C5.91823 14.2903 5.01674 13.9686 4.27501 13.3921C3.54802 12.8473 3.01305 12.0771 2.74995 11.1963C3.01137 11.2642 3.28007 11.2985 3.54981 11.2985C3.94197 11.2999 4.33131 11.2307 4.69996 11.0941C3.71595 10.8998 2.83061 10.3572 2.1999 9.56182C1.54536 8.77982 1.19014 7.78229 1.19987 6.75358V6.70248C1.81753 7.03883 2.5007 7.2307 3.19992 7.26421C2.58882 6.86614 2.0884 6.31407 1.74686 5.66118C1.40532 5.00829 1.23417 4.27658 1.24991 3.53654C1.24315 2.7455 1.45085 1.96798 1.85004 1.29003C2.9423 2.64543 4.29521 3.7576 5.82512 4.55779C7.38476 5.37761 9.0979 5.84774 10.8499 5.93671C10.7835 5.60055 10.7501 5.25846 10.7502 4.91553C10.7509 3.73759 11.2094 2.60809 12.025 1.77516C12.8407 0.942228 13.9467 0.47397 15.1001 0.473246C15.6984 0.461245 16.2924 0.577766 16.8437 0.815252C17.395 1.05274 17.8913 1.40589 18.3004 1.85181C19.2849 1.65328 20.2308 1.29101 21.1003 0.779465C20.779 1.81987 20.0817 2.69624 19.1503 3.23038C20.0269 3.13441 20.8855 2.91084 21.7 2.56646C21.0987 3.45334 20.3551 4.23023 19.5006 4.86439Z" fill="#333333"/>
</svg>
