<svg width="19" height="20" viewBox="0 0 19 20" fill="none" xmlns="http://www.w3.org/2000/svg">
<path fill-rule="evenodd" clip-rule="evenodd" d="M16.8502 1.95128C16.369 1.49511 14.4206 0.0345762 10.0774 0.0145689C10.0774 0.0145689 4.95804 -0.305548 2.46238 2.05532C1.07289 3.48784 0.583849 5.5806 0.533392 8.18156C0.482936 10.7785 0.416954 15.6483 4.96968 16.9688H4.97356L4.96968 18.9815C4.96968 18.9815 4.94251 19.7978 5.4626 19.9619C5.98812 20.1291 6.33469 19.7233 6.78557 19.1954C6.87407 19.0917 6.96688 18.9831 7.06557 18.8735C7.39548 18.5053 7.84958 17.9691 8.19502 17.557C11.3078 17.8251 13.7025 17.2089 13.9742 17.1168C14.0311 17.0977 14.1118 17.0764 14.2121 17.05C15.2219 16.7842 18.2144 15.9965 18.7404 11.5668C19.3381 6.55696 18.4493 3.3838 16.8502 1.95128ZM11.8667 8.32566C11.7386 8.32566 11.6299 8.22162 11.6222 8.08557C11.5795 7.22526 11.1875 6.8051 10.3879 6.76109C10.2521 6.75309 10.1473 6.63304 10.1551 6.49299C10.1628 6.35294 10.2793 6.2449 10.4151 6.2529C11.4708 6.31293 12.0608 6.93715 12.1151 8.05756C12.1229 8.19761 12.0181 8.31766 11.8822 8.32166C11.8745 8.32566 11.8706 8.32566 11.8667 8.32566ZM13.1203 8.75794H13.1242C13.2562 8.75794 13.3687 8.64991 13.3726 8.50985C13.392 7.52149 13.1048 6.68519 12.511 6.01694C11.921 5.3527 11.0943 4.97656 10.0464 4.89653C9.91054 4.88453 9.7941 4.98857 9.78246 5.12862C9.77081 5.26867 9.87173 5.38871 10.0076 5.40072C10.9352 5.46874 11.6377 5.78086 12.1461 6.35707C12.6585 6.93328 12.8991 7.63353 12.8797 8.49785C12.8758 8.6379 12.9845 8.75394 13.1203 8.75794ZM14.4128 9.27799C14.277 9.27799 14.1683 9.16595 14.1683 9.0259C14.1566 7.47733 13.7258 6.2969 12.8487 5.41258C11.9831 4.54026 10.8847 4.0961 9.59228 4.08409C9.45644 4.08409 9.34776 3.96805 9.34776 3.828C9.34776 3.68795 9.46032 3.57591 9.59228 3.57591C11.0167 3.58791 12.2277 4.08009 13.1863 5.04845C14.1489 6.0168 14.6418 7.35329 14.6573 9.0179C14.6612 9.16195 14.5525 9.27799 14.4128 9.27799ZM10.9779 11.2547C10.7916 11.4908 10.4462 11.4588 10.4462 11.4588C7.92334 10.7985 7.25188 8.16555 7.25188 8.16555C7.25188 8.16555 7.22083 7.80942 7.44982 7.61735L7.90393 7.24521C8.12905 7.06515 8.27265 6.62899 8.04366 6.20483C7.91558 5.96875 7.65941 5.54459 7.46923 5.27649C7.2674 4.99239 6.79777 4.41218 6.79777 4.41218C6.56877 4.13608 6.23887 4.07205 5.88955 4.26012H5.88179C5.55188 4.45219 5.24138 4.70829 4.95417 5.03641C4.95417 5.03841 4.9532 5.03941 4.95223 5.04041C4.95126 5.04141 4.95028 5.04241 4.95028 5.04441C4.73681 5.31251 4.61261 5.5726 4.58156 5.8327C4.5738 5.86471 4.5738 5.90072 4.5738 5.94874C4.5738 6.06078 4.58933 6.17282 4.62426 6.28486L4.6359 6.29287C4.74458 6.68901 5.01627 7.35325 5.6101 8.46166C5.99435 9.18192 6.38636 9.78214 6.77836 10.2863C6.98407 10.5544 7.21695 10.8265 7.48476 11.1066L7.59343 11.2187C7.86512 11.4988 8.12905 11.7349 8.38909 11.9469C8.88201 12.3511 9.46032 12.7552 10.159 13.1514C11.2302 13.7636 11.8745 14.0437 12.2626 14.1557L12.2704 14.1677C12.379 14.2038 12.4877 14.2198 12.5964 14.2198C12.643 14.2198 12.6779 14.2198 12.7089 14.2118C12.9573 14.1838 13.2135 14.0557 13.4736 13.8316C13.4755 13.8316 13.4765 13.8306 13.4774 13.8296C13.4784 13.8286 13.4794 13.8276 13.4813 13.8276C13.7957 13.5315 14.048 13.2114 14.2343 12.8713V12.8633C14.4167 12.4991 14.3546 12.159 14.0868 11.9269C14.0829 11.9229 13.524 11.4428 13.2484 11.2347C12.9923 11.0386 12.577 10.7745 12.348 10.6425C11.9366 10.4064 11.5135 10.5544 11.3389 10.7865L10.9779 11.2547Z" fill="#333333"/>
</svg>
