<?xml version="1.0" standalone="no"?>
<!DOCTYPE svg PUBLIC "-//W3C//DTD SVG 20010904//EN"
 "http://www.w3.org/TR/2001/REC-SVG-20010904/DTD/svg10.dtd">
<svg version="1.0" xmlns="http://www.w3.org/2000/svg"
 width="1200.000000pt" height="1919.000000pt" viewBox="0 0 1200.000000 1919.000000"
 preserveAspectRatio="xMidYMid meet">
<metadata>
Created by potrace 1.16, written by Peter Selinger 2001-2019
</metadata>
<g transform="translate(0.000000,1919.000000) scale(0.100000,-0.100000)"
fill="#000000" stroke="none">
<path d="M478 19175 c-219 -54 -397 -238 -442 -457 -15 -70 -16 -924 -16
-9116 0 -6505 3 -9055 11 -9098 42 -228 225 -418 459 -475 46 -12 946 -14
5510 -14 5125 0 5459 1 5517 17 219 61 389 231 438 440 13 55 15 1176 15 9130
0 6467 -3 9082 -11 9120 -20 97 -86 216 -164 293 -79 79 -156 124 -265 154
l-75 21 -5460 -1 c-4610 -1 -5469 -3 -5517 -14z m11252 -1455 l0 -400 -5730 0
-5730 0 0 400 0 400 5730 0 5730 0 0 -400z m0 -9173 c0 -7160 -2 -7969 -15
-8022 -31 -116 -109 -203 -221 -245 l-55 -20 -5457 2 -5457 3 -57 28 c-73 36
-150 119 -177 192 l-21 56 0 7984 0 7985 5730 0 5730 0 0 -7963z"/>
<path d="M5780 15487 c0 -35 -19 -88 -46 -124 -13 -17 -24 -39 -24 -48 0 -35
100 -101 199 -131 39 -11 48 -11 60 0 25 26 3 80 -82 202 -85 123 -107 143
-107 101z"/>
<path d="M6073 15417 c-40 -113 -41 -145 -8 -202 l26 -43 -27 -21 c-59 -47
-134 -40 -276 23 -137 62 -195 72 -317 57 -133 -18 -151 -22 -151 -35 0 -13
75 -39 143 -52 20 -3 39 -10 42 -14 10 -16 -42 -24 -148 -21 -98 2 -113 0
-167 -25 -83 -37 -82 -59 3 -47 97 13 153 7 267 -27 58 -18 122 -32 143 -32
44 1 46 -16 4 -36 -42 -21 -33 -35 18 -30 75 9 103 -32 32 -47 -67 -15 -184
-68 -265 -121 -112 -73 -205 -119 -406 -198 -104 -42 -199 -73 -250 -82 -170
-29 -190 -34 -237 -64 -36 -23 -63 -55 -109 -126 -34 -52 -73 -120 -87 -151
-23 -51 -25 -64 -20 -140 6 -87 20 -129 49 -146 20 -13 192 19 315 58 85 26
113 25 113 -6 0 -28 -34 -45 -162 -80 -139 -38 -156 -54 -113 -99 61 -64 169
-66 310 -5 142 61 270 59 515 -10 198 -55 330 -70 416 -46 53 14 68 8 89 -36
24 -49 15 -100 -39 -232 -59 -143 -188 -418 -228 -484 -76 -126 -254 -337
-406 -481 -49 -47 -109 -119 -149 -178 -95 -142 -177 -213 -288 -248 -102 -32
-214 -102 -376 -232 l-99 -80 -68 50 c-37 27 -164 115 -283 194 -175 118 -234
164 -315 245 -115 116 -195 162 -334 189 -83 17 -86 17 -156 -4 -93 -28 -145
-75 -224 -199 -34 -54 -85 -135 -113 -180 -96 -152 -225 -377 -283 -493 -79
-161 -153 -291 -260 -460 -139 -220 -174 -303 -174 -409 0 -32 -14 -74 -51
-155 -28 -61 -59 -149 -70 -196 -25 -112 -34 -247 -20 -284 11 -27 14 -28 59
-24 144 15 418 182 472 289 30 57 25 94 -20 170 -50 85 -51 118 -6 182 26 36
38 68 51 140 38 196 62 236 312 518 128 144 169 198 245 327 l60 102 62 0 c59
0 64 -2 97 -37 20 -21 69 -87 110 -147 90 -133 143 -191 310 -342 71 -64 129
-122 129 -130 0 -22 -30 -17 -105 19 -153 73 -497 160 -687 174 -85 6 -90 5
-155 -27 -91 -45 -185 -141 -238 -246 -39 -77 -40 -81 -38 -175 2 -108 25
-302 53 -454 18 -96 46 -300 71 -510 6 -55 20 -127 30 -160 11 -36 19 -90 19
-135 0 -88 27 -155 85 -216 48 -51 75 -98 125 -218 58 -139 98 -216 170 -326
99 -151 169 -220 222 -220 32 0 87 44 118 96 30 48 60 202 60 311 0 204 -41
272 -198 324 -118 39 -127 52 -135 185 -4 64 -12 96 -37 150 -103 220 -106
233 -125 514 -8 125 -21 248 -30 276 -8 27 -21 77 -29 112 l-15 63 28 31 c49
55 129 37 242 -55 65 -53 214 -148 324 -207 138 -74 259 -161 291 -208 35 -52
131 -131 202 -167 28 -14 91 -35 139 -47 69 -17 94 -28 116 -52 26 -27 81
-108 249 -367 159 -244 430 -521 813 -829 44 -36 112 -92 150 -125 68 -59 280
-213 475 -346 183 -124 279 -236 271 -316 -2 -24 -22 -13 -99 59 -192 179
-571 448 -631 448 -42 0 -40 -390 3 -575 14 -60 38 -146 52 -190 72 -225 248
-597 399 -845 47 -77 88 -154 92 -170 6 -34 -42 -143 -81 -179 -35 -33 -152
-40 -556 -30 -356 8 -455 15 -610 39 -96 16 -245 7 -335 -19 -51 -15 -98 -21
-173 -21 -134 0 -283 -17 -352 -40 -139 -47 -234 -94 -282 -140 -64 -62 -65
-94 -6 -145 95 -81 317 -163 470 -172 105 -7 121 1 174 85 72 113 123 133 232
92 67 -26 129 -25 223 1 54 15 116 22 235 26 291 10 580 -34 1044 -159 177
-47 286 -56 332 -26 32 21 78 133 78 189 0 61 -24 143 -91 308 -33 82 -70 191
-83 243 -58 227 -56 492 5 743 45 181 85 275 205 477 87 148 139 254 159 324
27 98 46 144 60 144 19 0 25 -23 25 -94 0 -117 -41 -234 -141 -402 -139 -234
-191 -368 -234 -607 -23 -129 -16 -377 14 -517 63 -293 215 -640 412 -944 22
-34 39 -72 39 -88 0 -49 -38 -112 -129 -214 -135 -153 -315 -310 -641 -560
-171 -132 -180 -141 -215 -219 -34 -78 -58 -102 -185 -188 -189 -128 -340
-302 -340 -394 0 -29 5 -36 33 -47 111 -46 448 -56 591 -17 87 23 160 61 176
91 14 26 13 63 -5 125 -14 47 -14 57 -1 89 12 29 29 42 95 75 87 44 119 79
146 162 19 56 135 198 285 349 154 154 405 337 597 433 119 60 131 88 115 276
-7 90 -15 129 -30 153 -11 18 -36 60 -56 93 -111 181 -105 377 17 548 46 63
69 83 194 168 398 268 596 459 758 731 62 104 110 242 131 378 19 123 26 140
59 140 35 0 63 -35 76 -99 14 -68 7 -148 -26 -284 -46 -189 -50 -330 -14 -419
17 -42 26 -34 33 33 8 66 30 140 70 234 15 36 26 79 26 107 0 118 81 198 111
111 7 -22 13 -85 13 -148 0 -99 -4 -119 -33 -200 -18 -49 -58 -137 -89 -195
-107 -202 -160 -310 -166 -345 -12 -60 46 -210 79 -210 6 0 12 34 15 75 7 89
39 161 112 249 96 114 199 254 222 299 34 66 85 215 102 295 17 80 18 230 3
311 -5 31 -26 83 -45 116 -58 99 -41 151 27 81 83 -88 109 -167 119 -363 5
-90 15 -182 25 -213 14 -48 68 -155 98 -193 22 -28 27 27 9 116 -24 121 -22
226 5 277 53 104 43 262 -29 444 -16 41 -25 77 -21 81 4 4 44 19 88 34 102 34
245 115 335 190 75 63 176 191 233 296 118 217 154 556 94 902 -39 226 -48
334 -36 458 24 255 40 302 154 462 133 184 177 315 145 429 -6 20 -17 42 -25
49 -22 18 -35 -2 -86 -127 -49 -122 -87 -187 -180 -310 -73 -95 -124 -147
-166 -166 -22 -10 -28 -8 -43 11 -10 12 -24 54 -31 93 -29 161 27 309 210 554
61 83 129 186 151 230 62 129 86 249 56 290 -19 26 -40 14 -79 -47 -203 -316
-227 -346 -406 -501 -147 -128 -141 -124 -152 -106 -13 21 -10 176 5 249 48
224 169 432 374 642 84 86 122 132 118 143 -12 32 -46 14 -236 -127 -176 -130
-309 -282 -399 -458 -62 -120 -86 -199 -107 -347 -29 -208 -7 -411 75 -688 63
-213 104 -504 105 -750 1 -339 -31 -489 -149 -689 -48 -84 -177 -222 -259
-281 -77 -54 -204 -118 -301 -150 -78 -26 -217 -37 -235 -19 -4 5 -20 54 -35
109 -64 239 -152 404 -345 647 -186 235 -332 375 -605 580 -55 41 -132 95
-170 120 -139 89 -439 455 -543 664 -126 251 -174 449 -152 626 6 47 15 100
21 118 10 28 15 31 40 26 15 -3 57 -25 93 -50 46 -31 82 -48 123 -55 168 -31
215 -53 382 -178 146 -110 185 -132 208 -117 28 17 25 29 -13 49 -42 23 -90
79 -130 153 -38 73 -125 144 -209 172 -36 12 -67 26 -71 31 -20 33 118 15 200
-25 28 -14 84 -52 125 -86 41 -33 80 -60 87 -60 10 0 14 13 14 39 0 37 -5 43
-107 131 -122 107 -194 154 -273 176 -99 29 -157 55 -181 80 -29 30 -15 31 73
4 36 -11 107 -29 159 -39 62 -13 149 -43 245 -84 179 -77 177 -76 237 -88 139
-26 367 62 367 142 0 27 -20 24 -84 -15 -82 -49 -173 -64 -251 -41 -53 15 -71
28 -170 124 -60 60 -123 115 -140 123 -16 9 -77 30 -135 48 -111 34 -275 103
-300 126 -9 9 -11 17 -5 23 6 6 50 -4 115 -27 103 -35 108 -36 235 -32 287 7
271 9 370 -37 65 -31 93 -39 102 -31 21 17 16 25 -34 59 -27 18 -78 60 -115
95 -78 73 -139 99 -266 114 -48 5 -90 10 -94 10 -5 0 -8 4 -8 10 0 15 69 30
138 30 57 0 72 -5 175 -59 114 -60 186 -81 273 -81 53 0 94 18 94 40 0 24 -17
36 -70 50 -63 17 -96 35 -170 95 -85 68 -109 79 -216 105 -49 11 -107 31 -128
43 -48 27 -84 73 -70 87 14 14 127 -25 179 -61 45 -31 93 -43 114 -30 22 14 6
38 -53 75 -49 32 -126 109 -126 127 0 13 50 -6 180 -68 69 -33 146 -68 172
-77 33 -12 60 -32 89 -67 44 -52 84 -79 119 -79 36 0 34 27 -7 67 -21 21 -54
68 -73 103 -57 104 -148 193 -254 248 -79 41 -99 57 -156 125 -57 69 -74 83
-147 117 -91 44 -103 64 -47 79 31 8 52 5 128 -18 50 -16 116 -34 146 -41 69
-15 92 -30 157 -97 35 -36 77 -65 130 -91 74 -35 84 -37 175 -37 77 0 101 3
114 17 15 15 15 18 -9 42 -14 14 -51 32 -83 41 -148 41 -200 80 -228 173 -30
103 -97 175 -245 265 -47 28 -103 67 -125 86 -37 34 -96 115 -96 133 0 15 39
8 92 -16 192 -89 283 -127 355 -146 66 -18 92 -31 140 -71 88 -73 107 -82 193
-83 69 -1 75 1 75 19 0 15 -20 30 -80 60 -68 35 -86 49 -116 95 -24 37 -60 71
-110 105 -59 40 -80 62 -107 110 -45 80 -68 103 -163 160 -74 44 -149 73 -266
104 -48 13 -55 32 -21 55 42 30 126 14 205 -38 60 -40 156 -75 265 -97 56 -12
130 -32 167 -46 76 -29 136 -31 181 -8 45 24 37 48 -21 56 -47 7 -65 15 -159
74 -30 19 -95 47 -144 62 -88 27 -92 30 -193 127 -58 55 -103 107 -103 117 0
25 20 16 99 -43 106 -79 172 -91 348 -61 l101 17 66 -33 c42 -21 78 -48 102
-76 38 -47 58 -56 68 -30 18 47 -80 147 -209 211 -88 44 -155 61 -320 80 -46
5 -55 11 -112 72 -101 109 -108 114 -225 177 -116 62 -142 85 -121 106 14 14
124 -12 293 -70 105 -36 105 -36 280 -36 l175 0 90 -46 c92 -48 159 -67 170
-50 9 16 -16 48 -57 71 -22 12 -68 46 -103 76 -90 77 -174 114 -277 123 -93 9
-91 8 -231 97 -107 68 -172 96 -276 120 -37 9 -70 19 -75 24 -13 13 61 46 177
80 123 35 173 37 229 9 33 -17 46 -19 64 -10 13 6 24 17 24 25 0 27 -60 84
-113 110 -50 24 -59 25 -262 26 -115 0 -227 4 -247 9 -27 6 -58 30 -116 89
-112 113 -178 144 -317 150 l-104 5 -25 37 c-39 59 -114 131 -216 206 -52 39
-109 87 -127 107 -18 20 -36 37 -40 37 -4 0 -23 -42 -40 -93z m-602 -821 c-27
-44 -89 -100 -138 -125 -86 -43 -325 -93 -346 -72 -5 5 40 25 101 45 136 46
226 89 322 154 41 29 76 47 78 42 2 -6 -6 -25 -17 -44z m443 0 c36 -23 68 -97
64 -148 -4 -63 -31 -63 -103 2 l-57 52 -62 -4 c-56 -3 -61 -1 -64 18 -10 73
147 130 222 80z m1043 -195 c101 -7 132 -18 118 -41 -5 -8 -23 -10 -57 -6 -42
6 -59 2 -129 -29 -44 -20 -89 -35 -102 -33 -27 4 -34 37 -17 91 11 39 12 39
48 32 20 -4 83 -10 139 -14z m-2413 -232 c17 -14 26 -30 26 -50 0 -25 -5 -30
-30 -36 -17 -3 -53 -26 -80 -50 -27 -24 -54 -42 -60 -38 -17 11 -11 68 14 121
35 76 78 94 130 53z m1496 -89 c0 -6 -24 -36 -52 -69 -29 -32 -72 -83 -94
-113 -34 -45 -49 -57 -85 -66 -47 -11 -149 -5 -149 9 0 5 44 31 98 58 56 29
133 80 182 120 85 71 100 80 100 61z m272 -323 c-29 -65 -52 -77 -170 -84
-142 -8 -159 3 -48 33 98 27 199 69 217 91 21 24 21 6 1 -40z m-86 -582 c13
-71 -34 -283 -86 -385 -67 -132 -348 -480 -389 -480 -26 0 -5 43 100 201 139
211 204 336 268 517 28 78 55 152 61 162 17 31 38 24 46 -15z m815 -6 c39 -42
56 -75 45 -87 -10 -10 -140 25 -180 49 -20 11 -36 27 -36 34 0 24 43 45 89 45
39 0 49 -5 82 -41z m-1646 -1264 c104 -27 245 -129 217 -157 -9 -9 -24 -7 -67
11 -95 39 -156 52 -285 58 -108 5 -136 3 -209 -16 -93 -24 -114 -22 -109 11
11 75 296 133 453 93z m-2565 -78 c0 -24 -23 -67 -89 -167 -112 -169 -133
-195 -154 -187 -12 5 -14 12 -8 34 12 41 56 125 119 227 64 103 84 126 112
126 16 0 20 -7 20 -33z m687 -241 c72 -82 103 -166 61 -166 -19 0 -27 8 -81
72 -58 69 -77 104 -77 141 0 27 0 27 29 13 16 -9 46 -36 68 -60z m763 -146 c0
-6 -32 -54 -72 -107 -39 -54 -98 -140 -131 -193 -74 -116 -90 -139 -99 -140
-5 0 -8 6 -8 14 0 23 130 278 168 330 51 70 142 131 142 96z m2039 -732 c4
-13 11 -54 15 -91 13 -136 82 -305 193 -477 72 -110 119 -167 277 -329 109
-111 126 -132 102 -127 -92 22 -357 263 -457 416 -113 172 -177 330 -199 491
-14 101 -5 139 35 139 17 0 28 -7 34 -22z m-2923 -103 c194 -81 337 -189 281
-211 -24 -9 -98 25 -207 96 -59 39 -138 82 -174 96 -60 24 -77 40 -59 57 14
15 56 5 159 -38z m-636 -350 c4 -73 15 -150 35 -227 29 -116 29 -135 2 -125
-21 8 -76 127 -89 192 -12 67 -15 245 -4 264 5 7 18 11 29 9 21 -3 22 -10 27
-113z m1906 -467 c21 -18 94 -98 162 -178 218 -253 375 -420 622 -659 132
-128 240 -239 240 -248 0 -23 -78 24 -231 139 -180 135 -294 235 -414 359
-209 218 -410 479 -443 576 -18 54 9 59 64 11z m4892 -271 c33 -131 45 -239
45 -382 -2 -311 -52 -442 -246 -642 -97 -101 -194 -177 -240 -188 -24 -6 -27
-5 -27 19 0 42 23 75 110 161 191 188 255 301 302 540 16 84 19 135 17 315 -1
118 -1 218 0 222 4 22 30 -9 39 -45z m-2623 -491 c18 -13 18 -15 3 -38 -9 -13
-42 -38 -75 -56 -78 -41 -92 -59 -128 -155 -35 -93 -53 -103 -74 -42 -36 105
51 260 165 295 44 13 88 11 109 -4z m1213 -967 c21 -30 23 -41 18 -103 -14
-150 -63 -279 -108 -284 -38 -5 -43 24 -17 99 18 52 22 82 19 154 -4 135 -4
138 21 157 28 23 38 20 67 -23z m-1558 -623 c0 -13 -11 -48 -24 -78 -35 -78
-46 -154 -40 -261 6 -100 -4 -134 -29 -107 -25 26 -38 82 -44 181 -5 76 -2
108 12 152 30 96 125 182 125 113z m-1345 -1122 c55 -8 186 -17 290 -20 105
-2 191 -8 193 -13 9 -26 -37 -35 -227 -45 -185 -8 -201 -8 -280 13 -80 20
-137 53 -125 72 7 12 33 11 149 -7z m1580 -903 c14 -23 -436 -451 -474 -451
-39 0 24 74 223 265 198 191 232 216 251 186z"/>
<path d="M10030 3086 l0 -134 103 -4 c56 -1 146 -2 200 0 l97 3 0 135 0 134
-200 0 -200 0 0 -134z"/>
<path d="M1350 3075 l0 -135 115 0 115 0 0 -785 0 -785 -145 0 -145 0 0 -115
0 -115 543 2 542 3 0 110 0 110 -182 3 -183 2 0 351 0 350 103 -3 102 -3 3
-97 3 -98 124 0 125 0 0 310 0 310 -125 0 -125 0 0 -90 0 -90 -105 0 -105 0 0
315 0 315 3900 0 3900 0 0 135 0 135 -4230 0 -4230 0 0 -135z"/>
<path d="M3085 2649 c-195 -20 -306 -76 -353 -177 l-27 -57 0 -540 0 -540 25
-49 c68 -132 202 -171 590 -170 384 0 502 34 556 159 13 30 19 78 22 198 l4
157 -196 0 -196 0 0 -95 c0 -110 -15 -150 -58 -162 -15 -5 -88 -8 -162 -8
-113 0 -140 3 -163 18 l-27 17 0 190 0 190 398 2 397 3 3 295 c1 181 -2 315
-8 347 -24 113 -118 179 -305 213 -83 15 -391 21 -500 9z m330 -199 c74 -17
75 -22 75 -281 l0 -229 -195 0 -195 0 0 214 c0 123 4 226 10 243 11 31 37 49
80 56 49 8 186 6 225 -3z"/>
<path d="M4992 2639 c-70 -27 -162 -114 -258 -242 l-74 -100 0 166 0 167 -275
0 -275 0 0 -100 0 -100 70 0 70 0 0 -530 0 -530 -70 0 -70 0 0 -115 0 -115
340 0 340 0 0 115 0 115 -65 0 -65 0 0 293 0 293 31 49 c68 107 261 345 279
345 6 0 10 -111 10 -285 l0 -285 188 2 187 3 0 355 c0 349 0 356 -22 397 -58
107 -209 152 -341 102z"/>
<path d="M6403 2639 c-69 -27 -171 -122 -258 -244 l-70 -97 -3 166 -2 166
-275 0 -275 0 0 -100 0 -100 70 0 70 0 0 -530 0 -530 -70 0 -70 0 0 -115 0
-115 343 2 342 3 0 110 0 110 -67 3 -68 3 0 292 0 292 64 95 c72 105 231 300
246 300 6 0 10 -109 10 -285 l0 -285 190 0 190 0 0 341 c0 241 -4 354 -12 383
-37 124 -211 190 -355 135z"/>
<path d="M7380 2654 c-150 -18 -248 -50 -298 -97 -56 -51 -82 -146 -82 -292
l0 -95 185 0 185 0 0 105 c0 111 12 156 47 170 10 4 61 10 113 12 111 6 174
-7 192 -40 8 -14 13 -91 16 -223 l4 -201 -248 -6 c-258 -6 -308 -13 -390 -55
-56 -29 -108 -90 -129 -151 -14 -42 -16 -82 -13 -233 3 -181 3 -183 33 -237
36 -66 91 -114 164 -143 55 -23 62 -23 589 -26 l532 -3 0 116 0 115 -75 0 -75
0 0 534 c0 582 -1 589 -58 649 -72 76 -166 97 -442 102 -118 2 -231 1 -250 -1z
m351 -1034 c-3 -217 -6 -231 -68 -257 -27 -11 -65 -14 -149 -11 -109 3 -115 4
-141 31 -28 27 -28 28 -31 185 -5 242 5 253 242 249 l150 -2 -3 -195z"/>
<path d="M9332 2645 c-85 -26 -174 -110 -293 -275 l-54 -75 -3 168 -2 167
-275 0 -275 0 0 -100 0 -99 73 -3 72 -3 3 -527 2 -528 -75 0 -75 0 0 -115 0
-115 345 0 345 0 0 115 0 115 -70 0 -70 0 0 287 0 286 27 46 c48 84 158 226
242 315 l46 50 5 -285 5 -284 188 -3 187 -2 0 352 c0 320 -2 357 -19 393 -48
107 -197 162 -329 120z"/>
<path d="M9880 2530 l0 -100 75 0 75 0 0 -530 0 -530 -75 0 -75 0 0 -115 0
-115 353 2 352 3 0 110 0 110 -72 3 -73 3 0 629 0 630 -280 0 -280 0 0 -100z"/>
</g>
</svg>
