<svg width="600" height="361" viewBox="0 0 600 361" fill="none" xmlns="http://www.w3.org/2000/svg">
<mask id="mask0" mask-type="alpha" maskUnits="userSpaceOnUse" x="0" y="0" width="600" height="361">
<rect width="600" height="361" fill="#C4C4C4"/>
</mask>
<g mask="url(#mask0)">
<line x1="-51.7516" y1="169.031" x2="610.737" y2="338.9" stroke="#758595" stroke-width="2"/>
<line x1="-53.7516" y1="175.031" x2="608.737" y2="344.9" stroke="#758595" stroke-width="2"/>
<line x1="364.953" y1="282.302" x2="339.953" y2="361.302" stroke="#758595" stroke-width="2"/>
<path fill-rule="evenodd" clip-rule="evenodd" d="M472.547 335.812V392.857H474.547L474.547 336.348L472.547 335.812ZM472.547 323.512L474.547 324.048L474.547 309.997H472.547V323.512Z" fill="#758595"/>
<path d="M474 304L454 285L418.5 289.5" stroke="#758595" stroke-width="2"/>
<path d="M367 276.5L371 264.5" stroke="#758595" stroke-width="2"/>
<path d="M115.5 218.5L104.5 239.5L115.5 243.959M115.5 243.959L141.5 254.5L135 297L121.5 293L111 265L115.5 243.959Z" stroke="#758595" stroke-width="2"/>
<path d="M250.5 -2L413.32 126.5M607 159H454.5L413.32 126.5M413.32 126.5L525 -17" stroke="#758595" stroke-width="2"/>
<path d="M249 140.5L284.5 168.5L263.5 235L416 277L454 159L325.5 58L249 140.5ZM249 140.5L192.5 197L139.5 201L134.5 217" stroke="#758595" stroke-width="2"/>
<path d="M134.5 216.5L35 191C34.3051 187.577 31.1284 185 27.5 185C23.3579 185 20 188.358 20 192.5C20 196.642 23.3579 200 27.5 200C29.7212 200 31.717 199.034 33.0903 197.5L473.59 310.5C474.285 313.923 477.462 316.5 481.09 316.5C485.232 316.5 488.59 313.142 488.59 309C488.59 304.858 485.232 301.5 481.09 301.5C478.869 301.5 476.873 302.466 475.5 304L134.5 216.5ZM134.5 216.5L139.5 201" stroke="#EB5757" stroke-width="3" stroke-linecap="round"/>
<path d="M105.852 184.14C104.863 184.14 103.967 183.925 103.164 183.496C102.371 183.057 101.745 182.455 101.288 181.69C100.84 180.925 100.616 180.061 100.616 179.1C100.616 178.139 100.845 177.275 101.302 176.51C101.759 175.745 102.385 175.147 103.178 174.718C103.981 174.279 104.877 174.06 105.866 174.06C106.669 174.06 107.401 174.2 108.064 174.48C108.727 174.76 109.287 175.166 109.744 175.698L108.568 176.804C107.859 176.039 106.986 175.656 105.95 175.656C105.278 175.656 104.676 175.805 104.144 176.104C103.612 176.393 103.197 176.799 102.898 177.322C102.599 177.845 102.45 178.437 102.45 179.1C102.45 179.763 102.599 180.355 102.898 180.878C103.197 181.401 103.612 181.811 104.144 182.11C104.676 182.399 105.278 182.544 105.95 182.544C106.986 182.544 107.859 182.157 108.568 181.382L109.744 182.502C109.287 183.034 108.722 183.44 108.05 183.72C107.387 184 106.655 184.14 105.852 184.14ZM112.986 177.616C113.49 176.832 114.377 176.44 115.646 176.44V178.106C115.497 178.078 115.361 178.064 115.24 178.064C114.559 178.064 114.027 178.265 113.644 178.666C113.261 179.058 113.07 179.627 113.07 180.374V184H111.32V176.524H112.986V177.616ZM119.945 176.44C121.047 176.44 121.887 176.706 122.465 177.238C123.053 177.761 123.347 178.554 123.347 179.618V184H121.695V183.09C121.481 183.417 121.173 183.669 120.771 183.846C120.379 184.014 119.903 184.098 119.343 184.098C118.783 184.098 118.293 184.005 117.873 183.818C117.453 183.622 117.127 183.356 116.893 183.02C116.669 182.675 116.557 182.287 116.557 181.858C116.557 181.186 116.805 180.649 117.299 180.248C117.803 179.837 118.592 179.632 119.665 179.632H121.597V179.52C121.597 178.997 121.439 178.596 121.121 178.316C120.813 178.036 120.351 177.896 119.735 177.896C119.315 177.896 118.9 177.961 118.489 178.092C118.088 178.223 117.747 178.405 117.467 178.638L116.781 177.364C117.173 177.065 117.645 176.837 118.195 176.678C118.746 176.519 119.329 176.44 119.945 176.44ZM119.707 182.824C120.146 182.824 120.533 182.726 120.869 182.53C121.215 182.325 121.457 182.035 121.597 181.662V180.794H119.791C118.783 180.794 118.279 181.125 118.279 181.788C118.279 182.105 118.405 182.357 118.657 182.544C118.909 182.731 119.259 182.824 119.707 182.824ZM131.431 182.6V184H124.977V182.894L129.079 177.924H125.061V176.524H131.319V177.63L127.203 182.6H131.431ZM139.908 176.524L136.408 184.602C136.081 185.414 135.684 185.983 135.218 186.31C134.751 186.646 134.186 186.814 133.524 186.814C133.15 186.814 132.782 186.753 132.418 186.632C132.054 186.511 131.755 186.343 131.522 186.128L132.222 184.84C132.39 184.999 132.586 185.125 132.81 185.218C133.043 185.311 133.276 185.358 133.51 185.358C133.818 185.358 134.07 185.279 134.266 185.12C134.471 184.961 134.658 184.695 134.826 184.322L134.952 184.028L131.69 176.524H133.51L135.862 182.054L138.228 176.524H139.908ZM151.983 178.904C152.524 179.081 152.953 179.38 153.271 179.8C153.588 180.211 153.747 180.724 153.747 181.34C153.747 182.189 153.42 182.847 152.767 183.314C152.113 183.771 151.161 184 149.911 184H145.039V174.2H149.631C150.788 174.2 151.679 174.429 152.305 174.886C152.93 175.334 153.243 175.955 153.243 176.748C153.243 177.233 153.131 177.663 152.907 178.036C152.683 178.409 152.375 178.699 151.983 178.904ZM146.859 175.628V178.33H149.435C150.069 178.33 150.555 178.218 150.891 177.994C151.236 177.761 151.409 177.425 151.409 176.986C151.409 176.538 151.236 176.202 150.891 175.978C150.555 175.745 150.069 175.628 149.435 175.628H146.859ZM149.799 182.572C151.208 182.572 151.913 182.101 151.913 181.158C151.913 180.215 151.208 179.744 149.799 179.744H146.859V182.572H149.799ZM162.633 178.904C163.174 179.081 163.604 179.38 163.921 179.8C164.238 180.211 164.397 180.724 164.397 181.34C164.397 182.189 164.07 182.847 163.417 183.314C162.764 183.771 161.812 184 160.561 184H155.689V174.2H160.281C161.438 174.2 162.33 174.429 162.955 174.886C163.58 175.334 163.893 175.955 163.893 176.748C163.893 177.233 163.781 177.663 163.557 178.036C163.333 178.409 163.025 178.699 162.633 178.904ZM157.509 175.628V178.33H160.085C160.72 178.33 161.205 178.218 161.541 177.994C161.886 177.761 162.059 177.425 162.059 176.986C162.059 176.538 161.886 176.202 161.541 175.978C161.205 175.745 160.72 175.628 160.085 175.628H157.509ZM160.449 182.572C161.858 182.572 162.563 182.101 162.563 181.158C162.563 180.215 161.858 179.744 160.449 179.744H157.509V182.572H160.449ZM176.685 184.98C176.359 185.363 175.976 185.652 175.537 185.848C175.108 186.044 174.637 186.142 174.123 186.142C173.451 186.142 172.835 185.988 172.275 185.68C171.715 185.381 171.076 184.859 170.357 184.112C169.452 184.037 168.64 183.776 167.921 183.328C167.203 182.871 166.643 182.278 166.241 181.55C165.84 180.813 165.639 179.996 165.639 179.1C165.639 178.148 165.868 177.289 166.325 176.524C166.783 175.749 167.413 175.147 168.215 174.718C169.018 174.279 169.919 174.06 170.917 174.06C171.916 174.06 172.817 174.279 173.619 174.718C174.422 175.147 175.052 175.745 175.509 176.51C175.967 177.275 176.195 178.139 176.195 179.1C176.195 179.875 176.041 180.593 175.733 181.256C175.425 181.909 174.996 182.469 174.445 182.936C173.895 183.393 173.255 183.725 172.527 183.93C172.798 184.219 173.064 184.429 173.325 184.56C173.587 184.691 173.867 184.756 174.165 184.756C174.809 184.756 175.369 184.495 175.845 183.972L176.685 184.98ZM167.473 179.1C167.473 179.753 167.623 180.346 167.921 180.878C168.22 181.401 168.631 181.811 169.153 182.11C169.676 182.399 170.264 182.544 170.917 182.544C171.571 182.544 172.159 182.399 172.681 182.11C173.204 181.811 173.615 181.401 173.913 180.878C174.212 180.346 174.361 179.753 174.361 179.1C174.361 178.447 174.212 177.859 173.913 177.336C173.615 176.804 173.204 176.393 172.681 176.104C172.159 175.805 171.571 175.656 170.917 175.656C170.264 175.656 169.676 175.805 169.153 176.104C168.631 176.393 168.22 176.804 167.921 177.336C167.623 177.859 167.473 178.447 167.473 179.1Z" fill="white"/>
<g style="mix-blend-mode:luminosity">
<path d="M294.578 338.098C293.803 338.098 293.108 337.935 292.492 337.608C291.876 337.281 291.395 336.829 291.05 336.25C290.705 335.662 290.532 334.999 290.532 334.262C290.532 333.525 290.705 332.867 291.05 332.288C291.395 331.709 291.871 331.257 292.478 330.93C293.094 330.603 293.794 330.44 294.578 330.44C295.315 330.44 295.959 330.589 296.51 330.888C297.07 331.187 297.49 331.616 297.77 332.176L296.426 332.96C296.211 332.615 295.941 332.358 295.614 332.19C295.297 332.013 294.947 331.924 294.564 331.924C293.911 331.924 293.369 332.139 292.94 332.568C292.511 332.988 292.296 333.553 292.296 334.262C292.296 334.971 292.506 335.541 292.926 335.97C293.355 336.39 293.901 336.6 294.564 336.6C294.947 336.6 295.297 336.516 295.614 336.348C295.941 336.171 296.211 335.909 296.426 335.564L297.77 336.348C297.481 336.908 297.056 337.342 296.496 337.65C295.945 337.949 295.306 338.098 294.578 338.098ZM300.116 338.098C299.799 338.098 299.528 337.991 299.304 337.776C299.08 337.552 298.968 337.272 298.968 336.936C298.968 336.591 299.076 336.311 299.29 336.096C299.514 335.881 299.79 335.774 300.116 335.774C300.443 335.774 300.714 335.881 300.928 336.096C301.152 336.311 301.264 336.591 301.264 336.936C301.264 337.272 301.152 337.552 300.928 337.776C300.704 337.991 300.434 338.098 300.116 338.098ZM313.717 329.74H308.859L308.873 338H307.081V328.2H313.731L313.717 329.74ZM316.369 338.098C315.613 338.098 314.932 337.935 314.325 337.608C313.719 337.281 313.243 336.829 312.897 336.25C312.561 335.662 312.393 334.999 312.393 334.262C312.393 333.525 312.561 332.867 312.897 332.288C313.243 331.709 313.719 331.257 314.325 330.93C314.932 330.603 315.613 330.44 316.369 330.44C317.135 330.44 317.821 330.603 318.427 330.93C319.034 331.257 319.505 331.709 319.841 332.288C320.187 332.867 320.359 333.525 320.359 334.262C320.359 334.999 320.187 335.662 319.841 336.25C319.505 336.829 319.034 337.281 318.427 337.608C317.821 337.935 317.135 338.098 316.369 338.098ZM316.369 336.6C317.013 336.6 317.545 336.385 317.965 335.956C318.385 335.527 318.595 334.962 318.595 334.262C318.595 333.562 318.385 332.997 317.965 332.568C317.545 332.139 317.013 331.924 316.369 331.924C315.725 331.924 315.193 332.139 314.773 332.568C314.363 332.997 314.157 333.562 314.157 334.262C314.157 334.962 314.363 335.527 314.773 335.956C315.193 336.385 315.725 336.6 316.369 336.6ZM326.232 330.44C326.96 330.44 327.609 330.599 328.178 330.916C328.757 331.233 329.209 331.681 329.536 332.26C329.863 332.839 330.026 333.506 330.026 334.262C330.026 335.018 329.863 335.69 329.536 336.278C329.209 336.857 328.757 337.305 328.178 337.622C327.609 337.939 326.96 338.098 326.232 338.098C325.224 338.098 324.426 337.762 323.838 337.09V340.716H322.088V330.524H323.754V331.504C324.043 331.149 324.398 330.883 324.818 330.706C325.247 330.529 325.719 330.44 326.232 330.44ZM326.036 336.6C326.68 336.6 327.207 336.385 327.618 335.956C328.038 335.527 328.248 334.962 328.248 334.262C328.248 333.562 328.038 332.997 327.618 332.568C327.207 332.139 326.68 331.924 326.036 331.924C325.616 331.924 325.238 332.022 324.902 332.218C324.566 332.405 324.3 332.675 324.104 333.03C323.908 333.385 323.81 333.795 323.81 334.262C323.81 334.729 323.908 335.139 324.104 335.494C324.3 335.849 324.566 336.124 324.902 336.32C325.238 336.507 325.616 336.6 326.036 336.6ZM334.458 330.44C335.559 330.44 336.399 330.706 336.978 331.238C337.566 331.761 337.86 332.554 337.86 333.618V338H336.208V337.09C335.993 337.417 335.685 337.669 335.284 337.846C334.892 338.014 334.416 338.098 333.856 338.098C333.296 338.098 332.806 338.005 332.386 337.818C331.966 337.622 331.639 337.356 331.406 337.02C331.182 336.675 331.07 336.287 331.07 335.858C331.07 335.186 331.317 334.649 331.812 334.248C332.316 333.837 333.105 333.632 334.178 333.632H336.11V333.52C336.11 332.997 335.951 332.596 335.634 332.316C335.326 332.036 334.864 331.896 334.248 331.896C333.828 331.896 333.413 331.961 333.002 332.092C332.601 332.223 332.26 332.405 331.98 332.638L331.294 331.364C331.686 331.065 332.157 330.837 332.708 330.678C333.259 330.519 333.842 330.44 334.458 330.44ZM334.22 336.824C334.659 336.824 335.046 336.726 335.382 336.53C335.727 336.325 335.97 336.035 336.11 335.662V334.794H334.304C333.296 334.794 332.792 335.125 332.792 335.788C332.792 336.105 332.918 336.357 333.17 336.544C333.422 336.731 333.772 336.824 334.22 336.824Z" fill="#758595"/>
</g>
<g style="mix-blend-mode:luminosity">
<path d="M164.578 292.098C163.803 292.098 163.108 291.935 162.492 291.608C161.876 291.281 161.395 290.829 161.05 290.25C160.705 289.662 160.532 288.999 160.532 288.262C160.532 287.525 160.705 286.867 161.05 286.288C161.395 285.709 161.871 285.257 162.478 284.93C163.094 284.603 163.794 284.44 164.578 284.44C165.315 284.44 165.959 284.589 166.51 284.888C167.07 285.187 167.49 285.616 167.77 286.176L166.426 286.96C166.211 286.615 165.941 286.358 165.614 286.19C165.297 286.013 164.947 285.924 164.564 285.924C163.911 285.924 163.369 286.139 162.94 286.568C162.511 286.988 162.296 287.553 162.296 288.262C162.296 288.971 162.506 289.541 162.926 289.97C163.355 290.39 163.901 290.6 164.564 290.6C164.947 290.6 165.297 290.516 165.614 290.348C165.941 290.171 166.211 289.909 166.426 289.564L167.77 290.348C167.481 290.908 167.056 291.342 166.496 291.65C165.945 291.949 165.306 292.098 164.578 292.098ZM170.116 292.098C169.799 292.098 169.528 291.991 169.304 291.776C169.08 291.552 168.968 291.272 168.968 290.936C168.968 290.591 169.076 290.311 169.29 290.096C169.514 289.881 169.79 289.774 170.116 289.774C170.443 289.774 170.714 289.881 170.928 290.096C171.152 290.311 171.264 290.591 171.264 290.936C171.264 291.272 171.152 291.552 170.928 291.776C170.704 291.991 170.434 292.098 170.116 292.098ZM189.667 282.2V292H177.081V282.2H178.873V290.46H182.485V282.2H184.277V290.46H187.875V282.2H189.667ZM191.081 290.46V294.086H189.401V292H187.833V290.46H191.081ZM195.421 284.44C196.522 284.44 197.362 284.706 197.941 285.238C198.529 285.761 198.823 286.554 198.823 287.618V292H197.171V291.09C196.956 291.417 196.648 291.669 196.247 291.846C195.855 292.014 195.379 292.098 194.819 292.098C194.259 292.098 193.769 292.005 193.349 291.818C192.929 291.622 192.602 291.356 192.369 291.02C192.145 290.675 192.033 290.287 192.033 289.858C192.033 289.186 192.28 288.649 192.775 288.248C193.279 287.837 194.068 287.632 195.141 287.632H197.073V287.52C197.073 286.997 196.914 286.596 196.597 286.316C196.289 286.036 195.827 285.896 195.211 285.896C194.791 285.896 194.376 285.961 193.965 286.092C193.564 286.223 193.223 286.405 192.943 286.638L192.257 285.364C192.649 285.065 193.12 284.837 193.671 284.678C194.222 284.519 194.805 284.44 195.421 284.44ZM195.183 290.824C195.622 290.824 196.009 290.726 196.345 290.53C196.69 290.325 196.933 290.035 197.073 289.662V288.794H195.267C194.259 288.794 193.755 289.125 193.755 289.788C193.755 290.105 193.881 290.357 194.133 290.544C194.385 290.731 194.735 290.824 195.183 290.824ZM204.391 292.098C203.616 292.098 202.921 291.935 202.305 291.608C201.689 291.281 201.208 290.829 200.863 290.25C200.517 289.662 200.345 288.999 200.345 288.262C200.345 287.525 200.517 286.867 200.863 286.288C201.208 285.709 201.684 285.257 202.291 284.93C202.907 284.603 203.607 284.44 204.391 284.44C205.128 284.44 205.772 284.589 206.323 284.888C206.883 285.187 207.303 285.616 207.583 286.176L206.239 286.96C206.024 286.615 205.753 286.358 205.427 286.19C205.109 286.013 204.759 285.924 204.377 285.924C203.723 285.924 203.182 286.139 202.753 286.568C202.323 286.988 202.109 287.553 202.109 288.262C202.109 288.971 202.319 289.541 202.739 289.97C203.168 290.39 203.714 290.6 204.377 290.6C204.759 290.6 205.109 290.516 205.427 290.348C205.753 290.171 206.024 289.909 206.239 289.564L207.583 290.348C207.293 290.908 206.869 291.342 206.309 291.65C205.758 291.949 205.119 292.098 204.391 292.098ZM215.735 284.524V292H213.985V286.008H211.185L211.115 287.492C211.069 288.481 210.975 289.312 210.835 289.984C210.705 290.647 210.476 291.174 210.149 291.566C209.832 291.949 209.393 292.14 208.833 292.14C208.572 292.14 208.25 292.089 207.867 291.986L207.951 290.516C208.082 290.544 208.194 290.558 208.287 290.558C208.642 290.558 208.908 290.418 209.085 290.138C209.263 289.849 209.375 289.508 209.421 289.116C209.477 288.715 209.524 288.145 209.561 287.408L209.687 284.524H215.735ZM218.092 284.524H219.842V289.452L223.972 284.524H225.568V292H223.818V287.072L219.702 292H218.092V284.524ZM233.34 288.108C234.264 288.388 234.726 288.985 234.726 289.9C234.726 290.572 234.474 291.09 233.97 291.454C233.466 291.818 232.719 292 231.73 292H227.922V284.524H231.576C232.491 284.524 233.205 284.692 233.718 285.028C234.231 285.364 234.488 285.84 234.488 286.456C234.488 286.839 234.385 287.17 234.18 287.45C233.984 287.73 233.704 287.949 233.34 288.108ZM229.588 287.646H231.422C232.327 287.646 232.78 287.333 232.78 286.708C232.78 286.101 232.327 285.798 231.422 285.798H229.588V287.646ZM231.59 290.726C232.551 290.726 233.032 290.413 233.032 289.788C233.032 289.461 232.92 289.219 232.696 289.06C232.472 288.892 232.122 288.808 231.646 288.808H229.588V290.726H231.59ZM243.59 288.304C243.59 288.425 243.581 288.598 243.562 288.822H237.696C237.799 289.373 238.065 289.811 238.494 290.138C238.933 290.455 239.474 290.614 240.118 290.614C240.939 290.614 241.616 290.343 242.148 289.802L243.086 290.88C242.75 291.281 242.325 291.585 241.812 291.79C241.299 291.995 240.72 292.098 240.076 292.098C239.255 292.098 238.531 291.935 237.906 291.608C237.281 291.281 236.795 290.829 236.45 290.25C236.114 289.662 235.946 288.999 235.946 288.262C235.946 287.534 236.109 286.881 236.436 286.302C236.772 285.714 237.234 285.257 237.822 284.93C238.41 284.603 239.073 284.44 239.81 284.44C240.538 284.44 241.187 284.603 241.756 284.93C242.335 285.247 242.783 285.7 243.1 286.288C243.427 286.867 243.59 287.539 243.59 288.304ZM239.81 285.84C239.25 285.84 238.774 286.008 238.382 286.344C237.999 286.671 237.766 287.109 237.682 287.66H241.924C241.849 287.119 241.621 286.68 241.238 286.344C240.855 286.008 240.379 285.84 239.81 285.84Z" fill="#758595"/>
</g>
<g style="mix-blend-mode:luminosity">
<path d="M376.766 298.349L384.146 300.286L383.766 301.735L378.119 300.253L377.507 302.582L380.31 303.318C381.448 303.616 382.247 304.082 382.708 304.714C383.181 305.34 383.3 306.1 383.065 306.994C382.819 307.933 382.303 308.574 381.518 308.918C380.735 309.253 379.743 309.263 378.543 308.947L374.277 307.827L376.766 298.349ZM378.804 307.568C379.481 307.746 380.029 307.75 380.45 307.581C380.871 307.412 381.147 307.079 381.277 306.582C381.533 305.607 380.97 304.938 379.589 304.576L377.152 303.936L376.366 306.928L378.804 307.568ZM387.23 311.329C386.498 311.137 385.881 310.806 385.377 310.336C384.873 309.866 384.528 309.308 384.341 308.66C384.165 308.006 384.171 307.323 384.358 306.61C384.545 305.896 384.875 305.303 385.347 304.828C385.828 304.356 386.403 304.039 387.073 303.877C387.743 303.715 388.443 303.731 389.174 303.923C389.915 304.117 390.537 304.449 391.04 304.919C391.544 305.389 391.885 305.947 392.063 306.592C392.25 307.239 392.25 307.919 392.063 308.632C391.876 309.346 391.54 309.943 391.057 310.424C390.585 310.898 390.014 311.216 389.345 311.378C388.675 311.54 387.97 311.524 387.23 311.329ZM387.61 309.881C388.233 310.044 388.802 309.972 389.317 309.663C389.832 309.354 390.179 308.862 390.357 308.185C390.534 307.507 390.475 306.908 390.178 306.386C389.88 305.864 389.42 305.521 388.797 305.358C388.175 305.194 387.605 305.267 387.09 305.575C386.584 305.886 386.242 306.38 386.064 307.057C385.886 307.735 385.942 308.333 386.23 308.852C386.527 309.374 386.987 309.717 387.61 309.881ZM398.714 306.427C399.418 306.612 400.005 306.93 400.475 307.382C400.954 307.836 401.278 308.384 401.447 309.027C401.616 309.669 401.605 310.356 401.413 311.087C401.221 311.819 400.892 312.427 400.427 312.913C399.964 313.39 399.412 313.708 398.772 313.868C398.141 314.03 397.473 314.019 396.769 313.834C395.794 313.578 395.108 313.051 394.709 312.251L393.789 315.758L392.096 315.314L394.684 305.456L396.296 305.879L396.047 306.827C396.417 306.557 396.827 306.39 397.279 306.325C397.739 306.263 398.217 306.297 398.714 306.427ZM396.96 312.335C397.583 312.499 398.147 312.425 398.654 312.114C399.169 311.806 399.515 311.313 399.693 310.636C399.871 309.959 399.811 309.359 399.514 308.837C399.226 308.318 398.77 307.976 398.147 307.813C397.741 307.706 397.351 307.705 396.976 307.809C396.603 307.904 396.277 308.099 395.998 308.392C395.718 308.685 395.519 309.057 395.401 309.509C395.282 309.96 395.273 310.382 395.372 310.775C395.472 311.168 395.659 311.502 395.934 311.777C396.212 312.043 396.554 312.229 396.96 312.335ZM404.047 307.914L405.739 308.359L404.488 313.125L409.734 309.407L411.278 309.813L409.379 317.044L407.686 316.599L408.938 311.833L403.705 315.554L402.148 315.145L404.047 307.914ZM414.921 318.6C414.172 318.404 413.541 318.069 413.028 317.597C412.515 317.124 412.166 316.564 411.978 315.917C411.794 315.26 411.795 314.576 411.982 313.863C412.17 313.149 412.504 312.557 412.985 312.085C413.466 311.613 414.041 311.296 414.711 311.134C415.389 310.974 416.108 310.994 416.866 311.193C417.579 311.381 418.164 311.689 418.621 312.117C419.087 312.548 419.384 313.07 419.513 313.683L418.014 314.1C417.894 313.711 417.697 313.394 417.424 313.149C417.162 312.897 416.846 312.722 416.476 312.625C415.844 312.459 415.266 312.529 414.742 312.836C414.22 313.133 413.869 313.624 413.688 314.31C413.508 314.997 413.567 315.601 413.864 316.122C414.173 316.638 414.647 316.98 415.288 317.148C415.658 317.245 416.018 317.253 416.368 317.171C416.729 317.082 417.057 316.898 417.352 316.619L418.453 317.718C418.031 318.186 417.51 318.498 416.89 318.654C416.282 318.803 415.626 318.785 414.921 318.6ZM428.356 314.297L426.457 321.528L424.778 321.087L426.3 315.291L422.738 314.356L421.217 320.152L419.524 319.707L421.423 312.476L428.356 314.297ZM431.939 323.068C431.208 322.876 430.59 322.545 430.086 322.075C429.582 321.605 429.237 321.047 429.05 320.399C428.874 319.745 428.88 319.061 429.067 318.348C429.255 317.635 429.584 317.041 430.056 316.567C430.537 316.095 431.112 315.778 431.782 315.616C432.452 315.454 433.152 315.469 433.884 315.661C434.624 315.856 435.246 316.188 435.75 316.658C436.253 317.128 436.594 317.685 436.772 318.33C436.959 318.978 436.959 319.658 436.772 320.371C436.585 321.084 436.25 321.682 435.766 322.163C435.294 322.637 434.723 322.955 434.054 323.117C433.384 323.279 432.679 323.263 431.939 323.068ZM432.319 321.619C432.942 321.783 433.511 321.71 434.026 321.402C434.542 321.093 434.888 320.6 435.066 319.923C435.244 319.246 435.184 318.647 434.887 318.125C434.59 317.603 434.13 317.26 433.507 317.097C432.884 316.933 432.315 317.006 431.799 317.314C431.293 317.625 430.951 318.119 430.773 318.796C430.596 319.473 430.651 320.072 430.939 320.591C431.236 321.113 431.696 321.456 432.319 321.619ZM445.868 318.895L443.969 326.126L442.277 325.681L443.799 319.886L441.09 319.175L440.646 320.592C440.349 321.537 440.048 322.317 439.742 322.931C439.447 323.539 439.092 323.991 438.677 324.287C438.273 324.577 437.8 324.651 437.258 324.508C437.005 324.442 436.707 324.311 436.363 324.114L436.818 322.714C436.937 322.774 437.042 322.816 437.132 322.84C437.475 322.93 437.768 322.862 438.01 322.636C438.255 322.401 438.45 322.1 438.595 321.733C438.751 321.359 438.941 320.82 439.164 320.116L440.018 317.359L445.868 318.895ZM451.151 322.829C452.072 323.071 452.721 323.464 453.1 324.007C453.487 324.552 453.581 325.204 453.382 325.963C453.174 326.757 452.742 327.3 452.086 327.591C451.431 327.882 450.612 327.894 449.631 327.627L446.249 326.724L448.148 319.493L449.84 319.938L449.218 322.307L451.151 322.829ZM449.809 326.342C450.303 326.481 450.709 326.477 451.028 326.329C451.347 326.181 451.561 325.899 451.67 325.484C451.776 325.078 451.728 324.747 451.525 324.491C451.322 324.235 450.965 324.035 450.452 323.891L448.912 323.472L448.269 325.923L449.809 326.342ZM457.488 329.777C456.739 329.58 456.108 329.245 455.595 328.773C455.082 328.3 454.733 327.741 454.545 327.093C454.361 326.437 454.362 325.752 454.549 325.039C454.737 324.326 455.071 323.733 455.552 323.261C456.033 322.789 456.608 322.472 457.278 322.31C457.956 322.151 458.675 322.171 459.433 322.37C460.146 322.557 460.731 322.865 461.188 323.294C461.654 323.725 461.951 324.247 462.08 324.859L460.581 325.276C460.461 324.888 460.264 324.571 459.991 324.325C459.729 324.073 459.413 323.899 459.043 323.801C458.411 323.635 457.833 323.706 457.309 324.012C456.787 324.309 456.436 324.801 456.255 325.487C456.075 326.173 456.134 326.777 456.431 327.299C456.74 327.814 457.214 328.156 457.855 328.324C458.225 328.421 458.585 328.429 458.935 328.347C459.296 328.258 459.624 328.074 459.919 327.795L461.02 328.895C460.598 329.363 460.077 329.675 459.457 329.83C458.849 329.979 458.193 329.961 457.488 329.777ZM465.858 328.775L464.544 328.43L463.784 331.328L462.091 330.884L463.99 323.653L465.682 324.097L464.914 327.022L466.268 327.378L469.176 325.014L470.99 325.491L467.45 328.281L469.268 332.768L467.277 332.245L465.858 328.775ZM473.421 333.96C472.69 333.768 472.073 333.437 471.569 332.967C471.065 332.497 470.72 331.938 470.533 331.291C470.357 330.637 470.363 329.953 470.55 329.24C470.737 328.527 471.067 327.933 471.539 327.459C472.02 326.987 472.595 326.67 473.265 326.508C473.934 326.346 474.635 326.361 475.366 326.553C476.106 326.747 476.728 327.079 477.232 327.55C477.736 328.02 478.077 328.577 478.255 329.222C478.442 329.869 478.442 330.55 478.255 331.263C478.068 331.976 477.732 332.573 477.249 333.054C476.777 333.529 476.206 333.847 475.536 334.009C474.867 334.17 474.162 334.154 473.421 333.96ZM473.802 332.511C474.425 332.675 474.994 332.602 475.509 332.293C476.024 331.985 476.371 331.492 476.549 330.815C476.726 330.138 476.667 329.538 476.369 329.016C476.072 328.495 475.612 328.152 474.989 327.988C474.366 327.825 473.797 327.897 473.282 328.206C472.776 328.517 472.434 329.011 472.256 329.688C472.078 330.365 472.134 330.963 472.422 331.483C472.719 332.005 473.179 332.347 473.802 332.511ZM486.687 333.52C486.656 333.638 486.603 333.802 486.528 334.014L480.854 332.524C480.814 333.083 480.96 333.575 481.292 334C481.636 334.418 482.119 334.709 482.742 334.873C483.536 335.081 484.26 334.991 484.912 334.603L485.545 335.884C485.118 336.187 484.63 336.372 484.082 336.44C483.533 336.509 482.947 336.461 482.324 336.297C481.53 336.089 480.872 335.747 480.35 335.272C479.828 334.798 479.474 334.237 479.287 333.589C479.111 332.935 479.117 332.252 479.304 331.538C479.489 330.834 479.813 330.244 480.276 329.767C480.75 329.284 481.313 328.959 481.965 328.792C482.616 328.625 483.299 328.636 484.012 328.823C484.716 329.008 485.302 329.331 485.77 329.791C486.249 330.245 486.567 330.797 486.725 331.446C486.894 332.089 486.881 332.78 486.687 333.52ZM483.656 330.177C483.115 330.035 482.612 330.076 482.147 330.302C481.694 330.521 481.357 330.886 481.136 331.397L485.239 332.474C485.304 331.932 485.194 331.449 484.91 331.027C484.625 330.605 484.207 330.322 483.656 330.177ZM503.897 334.131L501.999 341.362L491.342 338.564L493.24 331.333L494.933 331.777L493.411 337.573L496.214 338.309L497.736 332.513L499.429 332.958L497.907 338.753L500.683 339.482L502.204 333.686L503.897 334.131ZM507.472 342.9C506.741 342.708 506.124 342.377 505.62 341.907C505.116 341.437 504.771 340.879 504.584 340.231C504.408 339.577 504.414 338.893 504.601 338.18C504.788 337.467 505.118 336.873 505.59 336.399C506.071 335.927 506.646 335.61 507.316 335.448C507.985 335.286 508.686 335.301 509.417 335.493C510.157 335.688 510.779 336.02 511.283 336.49C511.787 336.96 512.128 337.517 512.306 338.162C512.493 338.81 512.493 339.49 512.306 340.203C512.118 340.916 511.783 341.514 511.3 341.995C510.828 342.469 510.257 342.787 509.587 342.949C508.918 343.111 508.213 343.095 507.472 342.9ZM507.853 341.451C508.476 341.615 509.045 341.542 509.56 341.234C510.075 340.925 510.422 340.432 510.6 339.755C510.777 339.078 510.718 338.479 510.42 337.957C510.123 337.435 509.663 337.092 509.04 336.929C508.417 336.765 507.848 336.838 507.333 337.146C506.827 337.457 506.485 337.951 506.307 338.628C506.129 339.305 506.184 339.904 506.473 340.423C506.77 340.945 507.23 341.288 507.853 341.451ZM516.294 345.216C515.545 345.02 514.914 344.685 514.401 344.213C513.888 343.74 513.538 343.181 513.351 342.533C513.166 341.877 513.168 341.192 513.355 340.479C513.542 339.766 513.876 339.173 514.357 338.701C514.838 338.229 515.414 337.912 516.083 337.75C516.762 337.591 517.481 337.61 518.239 337.81C518.952 337.997 519.537 338.305 519.994 338.733C520.46 339.165 520.757 339.686 520.885 340.299L519.386 340.716C519.266 340.328 519.07 340.011 518.797 339.765C518.535 339.513 518.219 339.339 517.849 339.241C517.217 339.075 516.638 339.146 516.114 339.452C515.592 339.749 515.241 340.241 515.061 340.927C514.881 341.613 514.94 342.217 515.237 342.739C515.545 343.254 516.02 343.596 516.661 343.764C517.031 343.861 517.391 343.869 517.741 343.787C518.102 343.698 518.43 343.514 518.725 343.235L519.826 344.334C519.404 344.803 518.883 345.115 518.263 345.27C517.655 345.419 516.998 345.401 516.294 345.216ZM524.056 347.255C523.307 347.058 522.676 346.723 522.163 346.251C521.65 345.778 521.3 345.219 521.113 344.571C520.929 343.915 520.93 343.23 521.117 342.517C521.304 341.804 521.639 341.211 522.12 340.739C522.601 340.267 523.176 339.95 523.846 339.788C524.524 339.629 525.243 339.648 526.001 339.848C526.714 340.035 527.299 340.343 527.756 340.772C528.222 341.203 528.519 341.725 528.648 342.337L527.149 342.754C527.029 342.366 526.832 342.049 526.559 341.803C526.297 341.551 525.981 341.377 525.611 341.279C524.979 341.113 524.401 341.184 523.876 341.49C523.355 341.787 523.004 342.279 522.823 342.965C522.643 343.651 522.702 344.255 522.999 344.777C523.308 345.292 523.782 345.634 524.423 345.802C524.793 345.899 525.153 345.907 525.503 345.825C525.864 345.736 526.192 345.552 526.487 345.273L527.588 346.373C527.166 346.841 526.645 347.153 526.025 347.308C525.417 347.457 524.761 347.439 524.056 347.255ZM536.262 346.537C536.231 346.654 536.179 346.819 536.104 347.031L530.43 345.541C530.389 346.1 530.535 346.591 530.868 347.016C531.211 347.435 531.695 347.726 532.317 347.889C533.112 348.098 533.835 348.008 534.487 347.619L535.121 348.9C534.694 349.203 534.206 349.389 533.657 349.457C533.109 349.525 532.523 349.477 531.9 349.314C531.106 349.105 530.447 348.764 529.926 348.289C529.404 347.814 529.049 347.253 528.862 346.606C528.686 345.952 528.692 345.268 528.88 344.555C529.064 343.851 529.388 343.26 529.851 342.784C530.326 342.3 530.889 341.975 531.54 341.809C532.192 341.642 532.874 341.652 533.587 341.839C534.292 342.024 534.878 342.347 535.345 342.808C535.824 343.261 536.143 343.813 536.3 344.462C536.469 345.105 536.457 345.796 536.262 346.537ZM533.232 343.194C532.69 343.051 532.187 343.093 531.723 343.318C531.27 343.537 530.933 343.902 530.712 344.413L534.814 345.491C534.88 344.948 534.77 344.466 534.485 344.044C534.2 343.621 533.783 343.338 533.232 343.194Z" fill="#758595"/>
</g>
<g style="mix-blend-mode:luminosity">
<path d="M333.578 241.098C332.803 241.098 332.108 240.935 331.492 240.608C330.876 240.281 330.395 239.829 330.05 239.25C329.705 238.662 329.532 237.999 329.532 237.262C329.532 236.525 329.705 235.867 330.05 235.288C330.395 234.709 330.871 234.257 331.478 233.93C332.094 233.603 332.794 233.44 333.578 233.44C334.315 233.44 334.959 233.589 335.51 233.888C336.07 234.187 336.49 234.616 336.77 235.176L335.426 235.96C335.211 235.615 334.941 235.358 334.614 235.19C334.297 235.013 333.947 234.924 333.564 234.924C332.911 234.924 332.369 235.139 331.94 235.568C331.511 235.988 331.296 236.553 331.296 237.262C331.296 237.971 331.506 238.541 331.926 238.97C332.355 239.39 332.901 239.6 333.564 239.6C333.947 239.6 334.297 239.516 334.614 239.348C334.941 239.171 335.211 238.909 335.426 238.564L336.77 239.348C336.481 239.908 336.056 240.342 335.496 240.65C334.945 240.949 334.306 241.098 333.578 241.098ZM339.116 241.098C338.799 241.098 338.528 240.991 338.304 240.776C338.08 240.552 337.968 240.272 337.968 239.936C337.968 239.591 338.076 239.311 338.29 239.096C338.514 238.881 338.79 238.774 339.116 238.774C339.443 238.774 339.714 238.881 339.928 239.096C340.152 239.311 340.264 239.591 340.264 239.936C340.264 240.272 340.152 240.552 339.928 240.776C339.704 240.991 339.434 241.098 339.116 241.098ZM353.711 231.2V241H351.905V237.304C350.981 237.649 350.104 237.822 349.273 237.822C348.023 237.822 347.057 237.523 346.375 236.926C345.703 236.319 345.367 235.451 345.367 234.322V231.2H347.173V234.126C347.173 234.817 347.374 235.344 347.775 235.708C348.177 236.072 348.751 236.254 349.497 236.254C350.347 236.254 351.149 236.081 351.905 235.736V231.2H353.711ZM363.318 233.524L359.818 241.602C359.491 242.414 359.095 242.983 358.628 243.31C358.161 243.646 357.597 243.814 356.934 243.814C356.561 243.814 356.192 243.753 355.828 243.632C355.464 243.511 355.165 243.343 354.932 243.128L355.632 241.84C355.8 241.999 355.996 242.125 356.22 242.218C356.453 242.311 356.687 242.358 356.92 242.358C357.228 242.358 357.48 242.279 357.676 242.12C357.881 241.961 358.068 241.695 358.236 241.322L358.362 241.028L355.1 233.524H356.92L359.272 239.054L361.638 233.524H363.318ZM368.511 233.888C369.22 233.888 369.846 234.042 370.387 234.35C370.928 234.649 371.348 235.069 371.647 235.61C371.955 236.151 372.109 236.772 372.109 237.472C372.109 238.191 371.941 238.83 371.605 239.39C371.269 239.941 370.798 240.37 370.191 240.678C369.584 240.986 368.894 241.14 368.119 241.14C366.822 241.14 365.818 240.711 365.109 239.852C364.4 238.993 364.045 237.757 364.045 236.142C364.045 234.639 364.367 233.449 365.011 232.572C365.655 231.695 366.64 231.116 367.965 230.836L371.437 230.094L371.689 231.662L368.539 232.306C367.634 232.493 366.957 232.81 366.509 233.258C366.061 233.706 365.8 234.336 365.725 235.148C366.061 234.747 366.467 234.439 366.943 234.224C367.419 234 367.942 233.888 368.511 233.888ZM368.161 239.726C368.805 239.726 369.323 239.521 369.715 239.11C370.116 238.69 370.317 238.158 370.317 237.514C370.317 236.87 370.116 236.352 369.715 235.96C369.323 235.568 368.805 235.372 368.161 235.372C367.508 235.372 366.98 235.568 366.579 235.96C366.178 236.352 365.977 236.87 365.977 237.514C365.977 238.167 366.178 238.699 366.579 239.11C366.99 239.521 367.517 239.726 368.161 239.726ZM373.803 233.524H375.553V238.452L379.683 233.524H381.279V241H379.529V236.072L375.413 241H373.803V233.524ZM383.633 233.524H385.383V236.562H389.149V233.524H390.899V241H389.149V238.046H385.383V241H383.633V233.524ZM396.646 241.098C395.872 241.098 395.176 240.935 394.56 240.608C393.944 240.281 393.464 239.829 393.118 239.25C392.773 238.662 392.6 237.999 392.6 237.262C392.6 236.525 392.773 235.867 393.118 235.288C393.464 234.709 393.94 234.257 394.546 233.93C395.162 233.603 395.862 233.44 396.646 233.44C397.384 233.44 398.028 233.589 398.578 233.888C399.138 234.187 399.558 234.616 399.838 235.176L398.494 235.96C398.28 235.615 398.009 235.358 397.682 235.19C397.365 235.013 397.015 234.924 396.632 234.924C395.979 234.924 395.438 235.139 395.008 235.568C394.579 235.988 394.364 236.553 394.364 237.262C394.364 237.971 394.574 238.541 394.994 238.97C395.424 239.39 395.97 239.6 396.632 239.6C397.015 239.6 397.365 239.516 397.682 239.348C398.009 239.171 398.28 238.909 398.494 238.564L399.838 239.348C399.549 239.908 399.124 240.342 398.564 240.65C398.014 240.949 397.374 241.098 396.646 241.098ZM404.487 238.004H403.129V241H401.379V233.524H403.129V236.548H404.529L406.741 233.524H408.617L405.901 237.122L408.799 241H406.741L404.487 238.004ZM416.787 237.304C416.787 237.425 416.778 237.598 416.759 237.822H410.893C410.996 238.373 411.262 238.811 411.691 239.138C412.13 239.455 412.671 239.614 413.315 239.614C414.137 239.614 414.813 239.343 415.345 238.802L416.283 239.88C415.947 240.281 415.523 240.585 415.009 240.79C414.496 240.995 413.917 241.098 413.273 241.098C412.452 241.098 411.729 240.935 411.103 240.608C410.478 240.281 409.993 239.829 409.647 239.25C409.311 238.662 409.143 237.999 409.143 237.262C409.143 236.534 409.307 235.881 409.633 235.302C409.969 234.714 410.431 234.257 411.019 233.93C411.607 233.603 412.27 233.44 413.007 233.44C413.735 233.44 414.384 233.603 414.953 233.93C415.532 234.247 415.98 234.7 416.297 235.288C416.624 235.867 416.787 236.539 416.787 237.304ZM413.007 234.84C412.447 234.84 411.971 235.008 411.579 235.344C411.197 235.671 410.963 236.109 410.879 236.66H415.121C415.047 236.119 414.818 235.68 414.435 235.344C414.053 235.008 413.577 234.84 413.007 234.84Z" fill="#758595"/>
</g>
<g style="mix-blend-mode:luminosity">
<path d="M285.578 142.098C284.803 142.098 284.108 141.935 283.492 141.608C282.876 141.281 282.395 140.829 282.05 140.25C281.705 139.662 281.532 138.999 281.532 138.262C281.532 137.525 281.705 136.867 282.05 136.288C282.395 135.709 282.871 135.257 283.478 134.93C284.094 134.603 284.794 134.44 285.578 134.44C286.315 134.44 286.959 134.589 287.51 134.888C288.07 135.187 288.49 135.616 288.77 136.176L287.426 136.96C287.211 136.615 286.941 136.358 286.614 136.19C286.297 136.013 285.947 135.924 285.564 135.924C284.911 135.924 284.369 136.139 283.94 136.568C283.511 136.988 283.296 137.553 283.296 138.262C283.296 138.971 283.506 139.541 283.926 139.97C284.355 140.39 284.901 140.6 285.564 140.6C285.947 140.6 286.297 140.516 286.614 140.348C286.941 140.171 287.211 139.909 287.426 139.564L288.77 140.348C288.481 140.908 288.056 141.342 287.496 141.65C286.945 141.949 286.306 142.098 285.578 142.098ZM291.116 142.098C290.799 142.098 290.528 141.991 290.304 141.776C290.08 141.552 289.968 141.272 289.968 140.936C289.968 140.591 290.076 140.311 290.29 140.096C290.514 139.881 290.79 139.774 291.116 139.774C291.443 139.774 291.714 139.881 291.928 140.096C292.152 140.311 292.264 140.591 292.264 140.936C292.264 141.272 292.152 141.552 291.928 141.776C291.704 141.991 291.434 142.098 291.116 142.098ZM298.081 132.2H305.711V133.698H299.873V136.106H302.771C303.947 136.106 304.839 136.353 305.445 136.848C306.061 137.333 306.369 138.038 306.369 138.962C306.369 139.933 306.033 140.684 305.361 141.216C304.689 141.739 303.733 142 302.491 142H298.081V132.2ZM302.393 140.6C303.093 140.6 303.625 140.465 303.989 140.194C304.353 139.923 304.535 139.531 304.535 139.018C304.535 138.01 303.821 137.506 302.393 137.506H299.873V140.6H302.393ZM315.166 138.304C315.166 138.425 315.157 138.598 315.138 138.822H309.272C309.375 139.373 309.641 139.811 310.07 140.138C310.509 140.455 311.05 140.614 311.694 140.614C312.516 140.614 313.192 140.343 313.724 139.802L314.662 140.88C314.326 141.281 313.902 141.585 313.388 141.79C312.875 141.995 312.296 142.098 311.652 142.098C310.831 142.098 310.108 141.935 309.482 141.608C308.857 141.281 308.372 140.829 308.026 140.25C307.69 139.662 307.522 138.999 307.522 138.262C307.522 137.534 307.686 136.881 308.012 136.302C308.348 135.714 308.81 135.257 309.398 134.93C309.986 134.603 310.649 134.44 311.386 134.44C312.114 134.44 312.763 134.603 313.332 134.93C313.911 135.247 314.359 135.7 314.676 136.288C315.003 136.867 315.166 137.539 315.166 138.304ZM311.386 135.84C310.826 135.84 310.35 136.008 309.958 136.344C309.576 136.671 309.342 137.109 309.258 137.66H313.5C313.426 137.119 313.197 136.68 312.814 136.344C312.432 136.008 311.956 135.84 311.386 135.84ZM321.41 138.108C321.876 138.239 322.236 138.453 322.488 138.752C322.749 139.041 322.88 139.391 322.88 139.802C322.88 140.259 322.726 140.665 322.418 141.02C322.11 141.365 321.685 141.636 321.144 141.832C320.602 142.028 319.986 142.126 319.296 142.126C318.717 142.126 318.152 142.061 317.602 141.93C317.051 141.79 316.552 141.594 316.104 141.342L316.608 140.04C316.972 140.245 317.382 140.404 317.84 140.516C318.297 140.628 318.754 140.684 319.212 140.684C319.8 140.684 320.257 140.595 320.584 140.418C320.92 140.231 321.088 139.979 321.088 139.662C321.088 139.373 320.957 139.149 320.696 138.99C320.444 138.831 320.084 138.752 319.618 138.752H318.162V137.576H319.478C319.916 137.576 320.257 137.501 320.5 137.352C320.752 137.203 320.878 136.993 320.878 136.722C320.878 136.451 320.728 136.237 320.43 136.078C320.131 135.919 319.72 135.84 319.198 135.84C318.451 135.84 317.662 136.022 316.832 136.386L316.384 135.098C317.364 134.641 318.353 134.412 319.352 134.412C319.986 134.412 320.556 134.501 321.06 134.678C321.564 134.846 321.956 135.089 322.236 135.406C322.525 135.714 322.67 136.069 322.67 136.47C322.67 136.834 322.558 137.161 322.334 137.45C322.11 137.73 321.802 137.949 321.41 138.108ZM331.752 134.524L328.252 142.602C327.925 143.414 327.528 143.983 327.062 144.31C326.595 144.646 326.03 144.814 325.368 144.814C324.994 144.814 324.626 144.753 324.262 144.632C323.898 144.511 323.599 144.343 323.366 144.128L324.066 142.84C324.234 142.999 324.43 143.125 324.654 143.218C324.887 143.311 325.12 143.358 325.354 143.358C325.662 143.358 325.914 143.279 326.11 143.12C326.315 142.961 326.502 142.695 326.67 142.322L326.796 142.028L323.534 134.524H325.354L327.706 140.054L330.072 134.524H331.752ZM338.707 136.008H334.717V142H332.967V134.524H338.707V136.008ZM346.251 134.524V142H344.501V136.008H341.701L341.631 137.492C341.584 138.481 341.491 139.312 341.351 139.984C341.22 140.647 340.991 141.174 340.665 141.566C340.347 141.949 339.909 142.14 339.349 142.14C339.087 142.14 338.765 142.089 338.383 141.986L338.467 140.516C338.597 140.544 338.709 140.558 338.803 140.558C339.157 140.558 339.423 140.418 339.601 140.138C339.778 139.849 339.89 139.508 339.937 139.116C339.993 138.715 340.039 138.145 340.077 137.408L340.203 134.524H346.251ZM348.608 134.524H350.358V139.452L354.488 134.524H356.084V142H354.334V137.072L350.218 142H348.608V134.524ZM363.856 138.108C364.78 138.388 365.242 138.985 365.242 139.9C365.242 140.572 364.99 141.09 364.486 141.454C363.982 141.818 363.235 142 362.246 142H358.438V134.524H362.092C363.006 134.524 363.72 134.692 364.234 135.028C364.747 135.364 365.004 135.84 365.004 136.456C365.004 136.839 364.901 137.17 364.696 137.45C364.5 137.73 364.22 137.949 363.856 138.108ZM360.104 137.646H361.938C362.843 137.646 363.296 137.333 363.296 136.708C363.296 136.101 362.843 135.798 361.938 135.798H360.104V137.646ZM362.106 140.726C363.067 140.726 363.548 140.413 363.548 139.788C363.548 139.461 363.436 139.219 363.212 139.06C362.988 138.892 362.638 138.808 362.162 138.808H360.104V140.726H362.106ZM370.214 139.004H368.856V142H367.106V134.524H368.856V137.548H370.256L372.468 134.524H374.344L371.628 138.122L374.526 142H372.468L370.214 139.004ZM378.409 134.44C379.511 134.44 380.351 134.706 380.929 135.238C381.517 135.761 381.811 136.554 381.811 137.618V142H380.159V141.09C379.945 141.417 379.637 141.669 379.235 141.846C378.843 142.014 378.367 142.098 377.807 142.098C377.247 142.098 376.757 142.005 376.337 141.818C375.917 141.622 375.591 141.356 375.357 141.02C375.133 140.675 375.021 140.287 375.021 139.858C375.021 139.186 375.269 138.649 375.763 138.248C376.267 137.837 377.056 137.632 378.129 137.632H380.061V137.52C380.061 136.997 379.903 136.596 379.585 136.316C379.277 136.036 378.815 135.896 378.199 135.896C377.779 135.896 377.364 135.961 376.953 136.092C376.552 136.223 376.211 136.405 375.931 136.638L375.245 135.364C375.637 135.065 376.109 134.837 376.659 134.678C377.21 134.519 377.793 134.44 378.409 134.44ZM378.171 140.824C378.61 140.824 378.997 140.726 379.333 140.53C379.679 140.325 379.921 140.035 380.061 139.662V138.794H378.255C377.247 138.794 376.743 139.125 376.743 139.788C376.743 140.105 376.869 140.357 377.121 140.544C377.373 140.731 377.723 140.824 378.171 140.824Z" fill="#758595"/>
</g>
<rect x="561" y="326" width="27" height="13" fill="#333333"/>
<path d="M570.41 336L570.4 331.36L568.1 335.2H567.52L565.22 331.42V336H563.99V329H565.06L567.83 333.63L570.57 329H571.63L571.65 336H570.41ZM575.989 336.1C575.429 336.1 574.929 335.96 574.489 335.68C574.049 335.393 573.702 334.98 573.449 334.44C573.196 333.893 573.069 333.247 573.069 332.5C573.069 331.753 573.196 331.11 573.449 330.57C573.702 330.023 574.049 329.61 574.489 329.33C574.929 329.043 575.429 328.9 575.989 328.9C576.549 328.9 577.049 329.043 577.489 329.33C577.936 329.61 578.286 330.023 578.539 330.57C578.792 331.11 578.919 331.753 578.919 332.5C578.919 333.247 578.792 333.893 578.539 334.44C578.286 334.98 577.936 335.393 577.489 335.68C577.049 335.96 576.549 336.1 575.989 336.1ZM575.989 334.97C576.489 334.97 576.882 334.763 577.169 334.35C577.462 333.937 577.609 333.32 577.609 332.5C577.609 331.68 577.462 331.063 577.169 330.65C576.882 330.237 576.489 330.03 575.989 330.03C575.496 330.03 575.102 330.237 574.809 330.65C574.522 331.063 574.379 331.68 574.379 332.5C574.379 333.32 574.522 333.937 574.809 334.35C575.102 334.763 575.496 334.97 575.989 334.97ZM582.68 331.89C583.326 331.97 583.82 332.19 584.16 332.55C584.5 332.91 584.67 333.36 584.67 333.9C584.67 334.307 584.566 334.677 584.36 335.01C584.153 335.343 583.84 335.61 583.42 335.81C583.006 336.003 582.5 336.1 581.9 336.1C581.4 336.1 580.916 336.03 580.45 335.89C579.99 335.743 579.596 335.543 579.27 335.29L579.83 334.28C580.083 334.493 580.39 334.663 580.75 334.79C581.116 334.91 581.493 334.97 581.88 334.97C582.34 334.97 582.7 334.877 582.96 334.69C583.226 334.497 583.36 334.237 583.36 333.91C583.36 333.583 583.233 333.33 582.98 333.15C582.733 332.963 582.353 332.87 581.84 332.87H581.2V331.98L582.79 330.09H579.61V329H584.38V329.87L582.68 331.89Z" fill="#BDBDBD"/>
<rect x="501" y="152" width="25" height="13" fill="#333333"/>
<path d="M507.041 155C507.647 155 508.174 155.1 508.621 155.3C509.074 155.5 509.421 155.787 509.661 156.16C509.901 156.533 510.021 156.977 510.021 157.49C510.021 157.997 509.901 158.44 509.661 158.82C509.421 159.193 509.074 159.48 508.621 159.68C508.174 159.88 507.647 159.98 507.041 159.98H505.461V162H504.161V155H507.041ZM506.981 158.88C507.547 158.88 507.977 158.76 508.271 158.52C508.564 158.28 508.711 157.937 508.711 157.49C508.711 157.043 508.564 156.7 508.271 156.46C507.977 156.22 507.547 156.1 506.981 156.1H505.461V158.88H506.981ZM513.728 162.1C513.168 162.1 512.668 161.96 512.228 161.68C511.788 161.393 511.441 160.98 511.188 160.44C510.935 159.893 510.808 159.247 510.808 158.5C510.808 157.753 510.935 157.11 511.188 156.57C511.441 156.023 511.788 155.61 512.228 155.33C512.668 155.043 513.168 154.9 513.728 154.9C514.288 154.9 514.788 155.043 515.228 155.33C515.675 155.61 516.025 156.023 516.278 156.57C516.531 157.11 516.658 157.753 516.658 158.5C516.658 159.247 516.531 159.893 516.278 160.44C516.025 160.98 515.675 161.393 515.228 161.68C514.788 161.96 514.288 162.1 513.728 162.1ZM513.728 160.97C514.228 160.97 514.621 160.763 514.908 160.35C515.201 159.937 515.348 159.32 515.348 158.5C515.348 157.68 515.201 157.063 514.908 156.65C514.621 156.237 514.228 156.03 513.728 156.03C513.235 156.03 512.841 156.237 512.548 156.65C512.261 157.063 512.118 157.68 512.118 158.5C512.118 159.32 512.261 159.937 512.548 160.35C512.841 160.763 513.235 160.97 513.728 160.97ZM520.419 157.89C521.066 157.97 521.559 158.19 521.899 158.55C522.239 158.91 522.409 159.36 522.409 159.9C522.409 160.307 522.306 160.677 522.099 161.01C521.892 161.343 521.579 161.61 521.159 161.81C520.746 162.003 520.239 162.1 519.639 162.1C519.139 162.1 518.656 162.03 518.189 161.89C517.729 161.743 517.336 161.543 517.009 161.29L517.569 160.28C517.822 160.493 518.129 160.663 518.489 160.79C518.856 160.91 519.232 160.97 519.619 160.97C520.079 160.97 520.439 160.877 520.699 160.69C520.966 160.497 521.099 160.237 521.099 159.91C521.099 159.583 520.972 159.33 520.719 159.15C520.472 158.963 520.092 158.87 519.579 158.87H518.939V157.98L520.529 156.09H517.349V155H522.119V155.87L520.419 157.89Z" fill="#BDBDBD"/>
<rect x="269" y="16" width="25" height="13" fill="#333333"/>
<path d="M275.041 19C275.647 19 276.174 19.1 276.621 19.3C277.074 19.5 277.421 19.7867 277.661 20.16C277.901 20.5333 278.021 20.9767 278.021 21.49C278.021 21.9967 277.901 22.44 277.661 22.82C277.421 23.1933 277.074 23.48 276.621 23.68C276.174 23.88 275.647 23.98 275.041 23.98H273.461V26H272.161V19H275.041ZM274.981 22.88C275.547 22.88 275.977 22.76 276.271 22.52C276.564 22.28 276.711 21.9367 276.711 21.49C276.711 21.0433 276.564 20.7 276.271 20.46C275.977 20.22 275.547 20.1 274.981 20.1H273.461V22.88H274.981ZM281.728 26.1C281.168 26.1 280.668 25.96 280.228 25.68C279.788 25.3933 279.441 24.98 279.188 24.44C278.935 23.8933 278.808 23.2467 278.808 22.5C278.808 21.7533 278.935 21.11 279.188 20.57C279.441 20.0233 279.788 19.61 280.228 19.33C280.668 19.0433 281.168 18.9 281.728 18.9C282.288 18.9 282.788 19.0433 283.228 19.33C283.675 19.61 284.025 20.0233 284.278 20.57C284.531 21.11 284.658 21.7533 284.658 22.5C284.658 23.2467 284.531 23.8933 284.278 24.44C284.025 24.98 283.675 25.3933 283.228 25.68C282.788 25.96 282.288 26.1 281.728 26.1ZM281.728 24.97C282.228 24.97 282.621 24.7633 282.908 24.35C283.201 23.9367 283.348 23.32 283.348 22.5C283.348 21.68 283.201 21.0633 282.908 20.65C282.621 20.2367 282.228 20.03 281.728 20.03C281.235 20.03 280.841 20.2367 280.548 20.65C280.261 21.0633 280.118 21.68 280.118 22.5C280.118 23.32 280.261 23.9367 280.548 24.35C280.841 24.7633 281.235 24.97 281.728 24.97ZM288.419 21.89C289.066 21.97 289.559 22.19 289.899 22.55C290.239 22.91 290.409 23.36 290.409 23.9C290.409 24.3067 290.306 24.6767 290.099 25.01C289.892 25.3433 289.579 25.61 289.159 25.81C288.746 26.0033 288.239 26.1 287.639 26.1C287.139 26.1 286.656 26.03 286.189 25.89C285.729 25.7433 285.336 25.5433 285.009 25.29L285.569 24.28C285.822 24.4933 286.129 24.6633 286.489 24.79C286.856 24.91 287.232 24.97 287.619 24.97C288.079 24.97 288.439 24.8767 288.699 24.69C288.966 24.4967 289.099 24.2367 289.099 23.91C289.099 23.5833 288.972 23.33 288.719 23.15C288.472 22.9633 288.092 22.87 287.579 22.87H286.939V21.98L288.529 20.09H285.349V19H290.119V19.87L288.419 21.89Z" fill="#BDBDBD"/>
<rect x="436" y="72" width="34" height="13" fill="#333333"/>
<path d="M444.485 76.1H442.165V82H440.875V76.1H438.565V75H444.485V76.1ZM447.886 75V82H446.586V76.09H445.106V75H447.886ZM452.195 82.1C451.635 82.1 451.135 81.96 450.695 81.68C450.255 81.3933 449.908 80.98 449.655 80.44C449.402 79.8933 449.275 79.2467 449.275 78.5C449.275 77.7533 449.402 77.11 449.655 76.57C449.908 76.0233 450.255 75.61 450.695 75.33C451.135 75.0433 451.635 74.9 452.195 74.9C452.755 74.9 453.255 75.0433 453.695 75.33C454.142 75.61 454.492 76.0233 454.745 76.57C454.998 77.11 455.125 77.7533 455.125 78.5C455.125 79.2467 454.998 79.8933 454.745 80.44C454.492 80.98 454.142 81.3933 453.695 81.68C453.255 81.96 452.755 82.1 452.195 82.1ZM452.195 80.97C452.695 80.97 453.088 80.7633 453.375 80.35C453.668 79.9367 453.815 79.32 453.815 78.5C453.815 77.68 453.668 77.0633 453.375 76.65C453.088 76.2367 452.695 76.03 452.195 76.03C451.702 76.03 451.308 76.2367 451.015 76.65C450.728 77.0633 450.585 77.68 450.585 78.5C450.585 79.32 450.728 79.9367 451.015 80.35C451.308 80.7633 451.702 80.97 452.195 80.97ZM461.025 80.9V82H455.865V81.13L458.645 78.49C458.958 78.19 459.168 77.93 459.275 77.71C459.388 77.4833 459.445 77.26 459.445 77.04C459.445 76.7133 459.335 76.4633 459.115 76.29C458.895 76.1167 458.571 76.03 458.145 76.03C457.431 76.03 456.885 76.2733 456.505 76.76L455.595 76.06C455.868 75.6933 456.235 75.41 456.695 75.21C457.161 75.0033 457.681 74.9 458.255 74.9C459.015 74.9 459.621 75.08 460.075 75.44C460.528 75.8 460.755 76.29 460.755 76.91C460.755 77.29 460.675 77.6467 460.515 77.98C460.355 78.3133 460.048 78.6933 459.595 79.12L457.725 80.9H461.025ZM464.926 77.68C465.386 77.68 465.799 77.77 466.166 77.95C466.532 78.1233 466.819 78.3733 467.026 78.7C467.232 79.0267 467.336 79.4033 467.336 79.83C467.336 80.2833 467.222 80.6833 466.996 81.03C466.769 81.37 466.462 81.6333 466.076 81.82C465.689 82.0067 465.256 82.1 464.776 82.1C463.816 82.1 463.069 81.8 462.536 81.2C462.009 80.6 461.746 79.74 461.746 78.62C461.746 77.8333 461.889 77.1633 462.176 76.61C462.462 76.05 462.862 75.6267 463.376 75.34C463.896 75.0467 464.496 74.9 465.176 74.9C465.536 74.9 465.872 74.94 466.186 75.02C466.506 75.0933 466.782 75.2033 467.016 75.35L466.536 76.33C466.189 76.1033 465.746 75.99 465.206 75.99C464.532 75.99 464.006 76.1967 463.626 76.61C463.246 77.0233 463.056 77.62 463.056 78.4V78.41C463.262 78.17 463.526 77.99 463.846 77.87C464.166 77.7433 464.526 77.68 464.926 77.68ZM464.706 81.08C465.112 81.08 465.442 80.9733 465.696 80.76C465.949 80.54 466.076 80.25 466.076 79.89C466.076 79.5233 465.949 79.2333 465.696 79.02C465.442 78.8067 465.102 78.7 464.676 78.7C464.256 78.7 463.912 78.8133 463.646 79.04C463.386 79.2667 463.256 79.5533 463.256 79.9C463.256 80.24 463.382 80.5233 463.636 80.75C463.896 80.97 464.252 81.08 464.706 81.08Z" fill="#BDBDBD"/>
<circle cx="139" cy="202" r="9.5" fill="#EB5757" stroke="white" stroke-width="3"/>
</g>
</svg>
